<?xml version="1.0" encoding="iso-8859-1"?>
<!-- Uploaded to: SVG Repo, www.svgrepo.com, Generator: SVG Repo Mixer Tools -->
<svg fill="#000000" height="800px" width="800px" version="1.1" id="Layer_1" xmlns="http://www.w3.org/2000/svg" xmlns:xlink="http://www.w3.org/1999/xlink" 
	 viewBox="0 0 511.986 511.986" xml:space="preserve">
<g>
	<g>
		<g>
			<path d="M400.917,47.042c5.461,0,10.923-2.069,15.061-6.229c5.397-5.397,8.683-18.325,10.496-28.245
				c0.64-3.435-0.469-6.955-2.944-9.451c-2.475-2.496-5.995-3.52-9.451-2.965c-9.92,1.813-22.869,5.099-28.245,10.496
				c-8.32,8.32-8.32,21.845,0,30.165C389.995,44.973,395.456,47.042,400.917,47.042z"/>
			<path d="M424.747,74.818c-9.92,1.813-22.869,5.099-28.245,10.496c-8.32,8.32-8.32,21.845,0,30.165
				c4.16,4.16,9.621,6.229,15.083,6.229s10.923-2.069,15.061-6.229c5.397-5.397,8.683-18.325,10.496-28.245
				c0.64-3.435-0.469-6.955-2.944-9.451C431.723,75.288,428.181,74.264,424.747,74.818z"/>
			<path d="M508.864,67.117c-2.475-2.496-6.016-3.499-9.451-2.965c-9.92,1.813-22.869,5.099-28.245,10.496
				c-8.32,8.32-8.32,21.845,0,30.165c4.16,4.16,9.621,6.229,15.083,6.229c5.461,0,10.923-2.069,15.061-6.229
				c5.397-5.397,8.683-18.325,10.496-28.245C512.448,73.133,511.339,69.613,508.864,67.117z"/>
			<path d="M224,85.314c-123.52,0-224,100.48-224,224c0,5.888,4.779,10.667,10.667,10.667s10.667-4.779,10.667-10.667
				c0-17.643,19.136-32,42.667-32c23.531,0,42.667,14.357,42.667,32c0,5.888,4.779,10.667,10.667,10.667S128,315.202,128,309.314
				c0-17.643,19.136-32,42.667-32c23.531,0,42.667,14.357,42.667,32v160c0,11.776-9.579,21.333-21.333,21.333
				s-21.333-9.557-21.333-21.333v-10.667c0-5.888-4.779-10.667-10.667-10.667s-10.667,4.779-10.667,10.667v10.667
				c0,23.531,19.136,42.667,42.667,42.667s42.667-19.136,42.667-42.667v-160c0-17.643,19.136-32,42.667-32
				c23.531,0,42.667,14.357,42.667,32c0,5.888,4.779,10.667,10.667,10.667s10.667-4.779,10.667-10.667c0-17.643,19.136-32,42.667-32
				c23.531,0,42.667,14.357,42.667,32c0,5.888,4.779,10.667,10.667,10.667c5.888,0,10.667-4.779,10.667-10.667
				C448,185.794,347.52,85.314,224,85.314z M384,255.981c-22.229,0-41.856,9.493-53.333,23.872
				c-11.477-14.379-31.104-23.872-53.333-23.872c-22.229,0-41.856,9.493-53.333,23.872c-11.477-14.379-31.104-23.872-53.333-23.872
				c-22.229,0-41.856,9.493-53.333,23.872C105.856,265.474,86.229,255.981,64,255.981c-14.272,0-27.456,3.904-38.123,10.517
				C45.589,175.234,126.933,106.648,224,106.648s178.411,68.587,198.123,159.851C411.456,259.906,398.272,255.981,384,255.981z"/>
		</g>
	</g>
</g>
</svg>