<svg xmlns="http://www.w3.org/2000/svg" version="1.1" xmlns:xlink="http://www.w3.org/1999/xlink" xmlns:svgjs="http://svgjs.dev/svgjs" width="1000" height="1000"><g clip-path="url(#SvgjsClipPath1144)"><rect width="1000" height="1000" fill="#ffffff"></rect><g transform="matrix(1.3021002877641636,0,0,1.3021002877641636,0,91.99989583197697)"><svg xmlns="http://www.w3.org/2000/svg" version="1.1" xmlns:xlink="http://www.w3.org/1999/xlink" xmlns:svgjs="http://svgjs.dev/svgjs" width="767.99" height="626.68"><svg id="Warstwa_1" xmlns="http://www.w3.org/2000/svg" viewBox="0 0 767.99 626.68">
  <defs>
    <style>
      .cls-1 {
        fill: #c0ff00;
      }

      .cls-2 {
        fill: #211f54;
      }
    </style>
  <clipPath id="SvgjsClipPath1144"><rect width="1000" height="1000" x="0" y="0" rx="350" ry="350"></rect></clipPath></defs>
  <path class="cls-2" d="M295.88,265.34v40.52h-22.82c-8.63,0-16.06,1.82-22.3,5.45-6.25,3.63-11.07,8.91-14.47,15.83-3.41,6.93-5.11,15.15-5.11,24.69l-.55,89.36h-45l-.42-175.85h42.57v24.2c3.92-4.84,8.47-9.05,13.62-12.62,11.12-7.72,23.94-11.58,38.47-11.58h16.01Z"></path>
  <path class="cls-2" d="M468.3,307.51c-7.28-14.31-17.38-25.44-30.33-33.39-12.95-7.96-28.17-11.93-45.65-11.93s-33.28,3.86-46.68,11.59c-13.41,7.73-23.92,18.51-31.52,32.37-7.62,13.85-11.42,29.87-11.42,48.04s3.86,34.18,11.59,48.04c7.72,13.86,18.45,24.65,32.2,32.37,13.74,7.72,29.69,11.58,47.87,11.58s33.67-4.08,47.19-12.26c13.51-8.19,23.8-19.99,30.83-35.44l-36.8-15.33h-4.09c-3.86,7.28-9.2,13.07-16.01,17.38-6.81,4.31-13.86,6.47-21.12,6.47-8.18,0-15.73-2.05-22.67-6.13-6.92-4.09-12.49-9.49-16.69-16.19-2.72-4.33-4.56-8.94-5.51-13.8h124.61l5.11-5.11v-8.18c0-19.08-3.64-35.78-10.91-50.09ZM349.71,334.43c.92-4.35,2.45-8.39,4.6-12.1,3.74-6.47,9.03-11.59,15.84-15.33,6.81-3.75,14.54-5.62,23.18-5.62,7.72,0,14.7,1.76,20.95,5.28,6.24,3.52,11.25,8.47,14.99,14.82,2.32,3.93,3.91,8.25,4.8,12.95h-84.37Z"></path>
  <polygon class="cls-1" points="465.14 182.57 539.91 447.12 587.17 447.12 512.41 182.57 465.14 182.57"></polygon>
</svg></svg></g></g></svg>