<svg version="1.2" xmlns="http://www.w3.org/2000/svg" viewBox="0 0 600 400" width="600" height="400">
	<title>New Project</title>
	<style>
		.s0 { fill: #211f54 } 
		.s1 { fill: #c0ff00 } 
	</style>
	<path class="s0" d="m186.3 129.5v52.8h-29.7q-16.9 0-29.1 7.1-12.2 7-18.8 20.6-6.7 13.5-6.7 32.1l-0.7 116.4h-58.6l-0.5-229h55.4v31.5q7.7-9.4 17.7-16.4 21.7-15.1 50.1-15.1z"/>
	<path class="s0" d="m410.8 184.4q-14.2-27.9-39.5-43.5-25.3-15.5-59.5-15.5c-22.7 0-43.3 5-60.7 15.1q-26.2 15.1-41.1 42.1-14.9 27.1-14.9 62.6 0 35.5 15.1 62.5 15.1 27.1 42 42.2 26.8 15.1 62.3 15.1c23.7 0 43.8-5.3 61.4-16 17.6-10.7 31-26 40.2-46.1l-47.9-20h-5.4q-7.5 14.2-20.8 22.6-13.3 8.5-27.5 8.5-16-0.1-29.5-8-13.5-8-21.8-21.1-5.3-8.5-7.1-18h162.2l6.7-6.6v-10.7q0-37.3-14.2-65.2zm-154.4 35.1q1.8-8.5 5.9-15.8 7.4-12.6 20.7-20 13.3-7.3 30.2-7.3 15 0 27.2 6.9c8.2 4.6 14.7 11 19.6 19.3q4.5 7.7 6.2 16.9c0 0-109.9 0-109.8 0z"/>
	<path fill-rule="evenodd" class="s1" d="m406.7 21.7l97.3 344.5h61.6l-97.4-344.5h-61.5z"/>
</svg>