<?xml version="1.0" encoding="UTF-8" standalone="no"?>
<!DOCTYPE svg PUBLIC "-//W3C//DTD SVG 1.1//EN" "http://www.w3.org/Graphics/SVG/1.1/DTD/svg11.dtd">
<svg width="100%" height="100%" viewBox="0 0 6048 3556" version="1.1" xmlns="http://www.w3.org/2000/svg" xmlns:xlink="http://www.w3.org/1999/xlink" xml:space="preserve" xmlns:serif="http://www.serif.com/" style="fill-rule:evenodd;clip-rule:evenodd;stroke-linejoin:round;stroke-miterlimit:2;">
    <g transform="matrix(17.3611,0,0,17.3611,-4445.82,-3744.57)">
        <path d="M527.7,393.9L568.7,236.9L604.4,236.9L563.4,393.9L527.7,393.9Z" style="fill:rgb(105,255,71);fill-rule:nonzero;"/>
    </g>
    <g transform="matrix(17.3611,0,0,17.3611,-4445.82,-3757.07)">
        <path d="M348.3,238.6L348.3,273.8L309.5,273.8C305.8,273.8 302.9,274.1 300.8,274.8C298.7,275.5 297.3,276.5 296.3,277.9C295.4,279.3 294.8,281.2 294.6,283.5C294.4,285.8 294.3,288.6 294.3,291.7L294.3,393.9L256.6,393.9L256.6,290C256.6,280.9 257.8,273.1 260.1,266.7C262.4,260.3 265.8,255 270.2,250.8C274.6,246.6 279.8,243.5 285.8,241.6C291.9,239.6 298.6,238.7 306.1,238.7L348.3,238.7L348.3,238.6Z" style="fill:white;fill-rule:nonzero;"/>
    </g>
    <g transform="matrix(17.3611,0,0,17.3611,-4445.82,-3744.57)">
        <path d="M514.4,327.5C514.9,322.6 515.2,319.7 515.2,315.9C515.2,312.1 515,309.5 514.7,306.2C514.4,302.7 513.8,299.5 513.1,296.4C512.5,293.7 511.8,291.1 510.9,288.4C508.6,281.2 505.2,274.3 500.9,268.2C497,262.8 492.5,258.2 487.5,254.2C480.2,248.4 472,244.1 463.1,241.2C457.1,239.3 451.3,238 444.7,237.3C443.1,237 439.8,236.9 436.5,236.9C433.2,236.9 431,237.1 428.3,237.3C422.2,237.9 416.1,239.2 410.1,241.2C401.2,244.1 393.1,248.4 385.8,254.2C380.8,258.2 376.4,262.9 372.5,268.2C368.2,274.3 364.8,281.1 362.5,288.4C361.7,291.1 360.9,293.7 360.3,296.4C359.6,299.5 359.1,302.7 358.7,306.2C358.4,309.5 358.2,312.7 358.2,315.9C358.2,319.1 358.5,322.6 359,327.5C359.7,332.4 360.9,337.8 362.6,343.1C365.5,352.1 369.8,360.2 375.6,367.5C381.4,374.8 389.1,380.9 397.8,385.9C398.8,386.5 399.9,387 401,387.6C401.3,387.8 401.5,387.9 401.8,388C409.6,391.7 418.1,394.2 428,395.3L428,395C431.3,395.3 433.4,395.4 436.2,395.5C439.5,395.5 442.8,395.3 444.4,395L444.4,395.3C452.6,394.3 460.7,392.4 467.7,389.5C469.3,388.9 471,388.2 472.5,387.5C473.6,387 474.7,386.4 475.8,385.8C484.5,380.8 492.2,374.7 498,367.4C502.2,362.1 505.6,356.4 508.3,350.3L466,350.3C465.1,351.1 464.2,351.8 463.3,352.6C459.6,355.5 455.3,357.6 450.6,359C448.7,359.6 446.4,360 444.8,360.3C443.2,360.8 439.9,361.1 436.6,361.1C433.3,361.1 431.1,360.8 428.4,360.3C426.5,360 424.7,359.5 422.8,359C418.1,357.6 414,355.5 410.2,352.6C406.5,349.7 403.2,346.1 400.4,341.8C399.6,340.6 398.9,339.3 398.2,337.9C396.9,335.5 395.7,333.3 394.9,330.5C394.6,329.3 394.2,327.3 394,327.3L514.4,327.3L514.4,327.5ZM397.2,296.3C398,294.3 399,292.4 400.1,290.7C402.9,286.3 406.1,282.7 409.9,279.8C413.6,276.9 417.8,274.8 422.5,273.4C424.5,272.8 426.4,272.4 428.4,272C431.1,271.5 433.8,271.3 436.5,271.3C439.2,271.3 436.5,271.3 436.6,271.3L436.7,271.3C439.4,271.3 443.1,271.6 444.8,272C446.4,272.3 448.9,272.8 450.9,273.4C455.6,274.8 459.9,276.9 463.7,279.8C467.4,282.7 470.7,286.3 473.5,290.7C474.6,292.4 475.5,294.4 476.4,296.3L397.2,296.3Z" style="fill:white;fill-rule:nonzero;"/>
    </g>
</svg>
