<?xml version="1.0" encoding="UTF-8" standalone="no"?>
<!DOCTYPE svg PUBLIC "-//W3C//DTD SVG 1.1//EN" "http://www.w3.org/Graphics/SVG/1.1/DTD/svg11.dtd">
<svg width="100%" height="100%" viewBox="0 0 3544 662" version="1.1" xmlns="http://www.w3.org/2000/svg" xmlns:xlink="http://www.w3.org/1999/xlink" xml:space="preserve" xmlns:serif="http://www.serif.com/" style="fill-rule:evenodd;clip-rule:evenodd;stroke-linejoin:round;stroke-miterlimit:2;">
    <g transform="matrix(4.16667,0,0,4.16667,-1048.36,-984.083)">
        <path d="M527.7,393.9L568.7,236.9L604.4,236.9L563.4,393.9L527.7,393.9Z" style="fill:rgb(105,255,71);fill-rule:nonzero;"/>
    </g>
    <g transform="matrix(4.16667,0,0,4.16667,-1048.36,-987.083)">
        <path d="M348.3,238.6L348.3,273.8L309.5,273.8C305.8,273.8 302.9,274.1 300.8,274.8C298.7,275.5 297.3,276.5 296.3,277.9C295.4,279.3 294.8,281.2 294.6,283.5C294.4,285.8 294.3,288.6 294.3,291.7L294.3,393.9L256.6,393.9L256.6,290C256.6,280.9 257.8,273.1 260.1,266.7C262.4,260.3 265.8,255 270.2,250.8C274.6,246.6 279.8,243.5 285.8,241.6C291.9,239.6 298.6,238.7 306.1,238.7L348.3,238.7L348.3,238.6Z" style="fill:rgb(1,2,4);fill-rule:nonzero;"/>
    </g>
    <g transform="matrix(4.16667,0,0,4.16667,-1048.36,-984.083)">
        <path d="M816.6,316.2C816.6,323.7 817.9,330.2 820.4,335.8C822.9,341.4 826.2,346.1 830.3,349.9C834.4,353.7 839,356.6 844.1,358.4C849.2,360.3 854.5,361.2 859.9,361.2C868.3,361.2 876.1,359.1 883.4,354.8C890.7,350.5 896,344 899.3,335.2L936.7,335.2C934.6,345.3 931.2,354.1 926.2,361.6C921.3,369.1 915.3,375.4 908.5,380.5C901.6,385.5 894.1,389.3 885.9,391.8C877.7,394.3 869.3,395.6 860.8,395.6C852.3,395.6 841.2,393.9 831.6,390.6C822,387.2 813.4,382.3 805.9,375.7C798.4,369.1 792.3,360.8 787.7,350.8C783.1,340.8 780.9,329.3 780.9,316.3C780.9,303.3 783.2,291.5 787.7,281.7C792.3,271.8 798.3,263.6 805.9,257C813.4,250.4 822,245.4 831.5,242.1C841,238.7 850.8,237.1 860.8,237.1C870.8,237.1 877.7,238.4 885.9,240.9C894.1,243.4 901.6,247.2 908.5,252.2C915.4,257.2 921.3,263.5 926.2,271.1C931.1,278.6 934.6,287.5 936.7,297.8L899.3,297.8C895.8,288.9 890.4,282.3 883.1,278C875.8,273.7 868,271.6 859.6,271.6C851.2,271.6 848.9,272.5 843.8,274.4C838.7,276.3 834.1,279.1 830,282.9C825.9,286.7 822.6,291.4 820.2,297C817.8,302.6 816.6,309.1 816.6,316.6L816.6,316.2Z" style="fill:rgb(1,2,4);fill-rule:nonzero;"/>
    </g>
    <g transform="matrix(4.16667,0,0,4.16667,-1048.36,-984.083)">
        <path d="M765.5,306.2C764.9,299.6 763.6,294.2 761.7,288.4C759.4,281.2 756,274.3 751.7,268.2C747.8,262.8 743.3,258.2 738.3,254.2C731,248.4 722.8,244.1 713.9,241.2C707.9,239.3 702.1,238 695.5,237.3C693.9,237 690.6,236.9 687.3,236.9C684,236.9 681.8,237.1 679.1,237.3C673,237.9 666.9,239.2 660.9,241.2C652,244.1 643.9,248.4 636.6,254.2C631.6,258.2 627.2,262.9 623.3,268.2C619,274.3 615.6,281.1 613.3,288.4C611.5,294.2 610.2,299.6 609.6,306.2C609.3,309.5 609.1,312.7 609.1,315.9C609.1,319.1 609.4,322.6 609.9,327.5C610.6,332.4 611.8,337.8 613.5,343.1C616.4,352.1 620.7,360.2 626.5,367.5C632.3,374.8 640,380.9 648.7,385.9C649.7,386.5 650.8,387 651.9,387.6C652.2,387.8 652.6,387.9 652.9,388C660.7,391.7 669.6,394.2 679.3,395.3L679.3,395C682,395.3 684.7,395.4 687.5,395.5C690.8,395.5 694.1,395.3 695.7,395L695.7,395.3C703.8,394.3 711.8,392.4 718.8,389.5C720.4,388.9 722,388.2 723.5,387.5C724.6,387 725.7,386.4 726.7,385.8C735.4,380.8 743,374.7 748.9,367.4C754.7,360.1 759,352 761.9,343C763.6,337.7 764.8,332.3 765.5,327.4C766,322.5 766.3,319.6 766.3,315.8C766.3,312 766.1,309.4 765.8,306.1L765.5,306.1L765.5,306.2ZM729.3,330.7C728.5,333.4 727.3,335.7 726,338.1C725.3,339.4 724.6,340.8 723.8,342C721,346.3 717.7,349.9 714,352.8C710.3,355.7 706,357.8 701.3,359.2C699.4,359.8 697.1,360.2 695.5,360.5C693.9,361 690.6,361.3 687.3,361.3C684,361.3 681.8,361 679.1,360.5C677.2,360.2 675.4,359.7 673.5,359.2C668.8,357.8 664.7,355.7 660.9,352.8C657.2,349.9 653.9,346.3 651.1,342C650.3,340.8 649.6,339.5 648.9,338.1C647.6,335.7 646.4,333.5 645.6,330.7C645.3,329.5 644.9,327.5 644.7,327.5C643.9,322.6 643.5,320.2 643.5,316.7C643.5,313.2 643.9,309.5 644.6,306.2C644.9,304.6 645.2,303.6 645.5,302.4C646.1,300.3 646.9,298.3 647.9,296.3C648.7,294.3 649.7,292.4 650.8,290.7C653.6,286.3 656.8,282.7 660.6,279.8C664.3,276.9 668.5,274.8 673.2,273.4C675.2,272.8 677.1,272.4 679.1,272C681.8,271.5 684.5,271.3 687.2,271.3C689.9,271.3 687.2,271.3 687.2,271.3C689.9,271.3 693.6,271.6 695.3,272C696.9,272.3 699.4,272.8 701.4,273.4C706.1,274.8 710.4,276.9 714.2,279.8C717.9,282.7 721.2,286.3 724,290.7C725.1,292.4 726,294.4 726.9,296.3C727.8,298.2 728.6,300.3 729.3,302.4C729.7,303.6 730,304.6 730.3,306.2C731.1,309.5 731.4,313.2 731.4,316.7C731.4,320.2 731,322.6 730.2,327.5C729.9,327.5 729.6,329.5 729.3,330.7L729.1,330.7L729.3,330.7Z" style="fill:rgb(1,2,4);fill-rule:nonzero;"/>
    </g>
    <g transform="matrix(4.16667,0,0,4.16667,-1048.36,-984.083)">
        <path d="M514.4,327.5C514.9,322.6 515.2,319.7 515.2,315.9C515.2,312.1 515,309.5 514.7,306.2C514.4,302.7 513.8,299.5 513.1,296.4C512.5,293.7 511.8,291.1 510.9,288.4C508.6,281.2 505.2,274.3 500.9,268.2C497,262.8 492.5,258.2 487.5,254.2C480.2,248.4 472,244.1 463.1,241.2C457.1,239.3 451.3,238 444.7,237.3C443.1,237 439.8,236.9 436.5,236.9C433.2,236.9 431,237.1 428.3,237.3C422.2,237.9 416.1,239.2 410.1,241.2C401.2,244.1 393.1,248.4 385.8,254.2C380.8,258.2 376.4,262.9 372.5,268.2C368.2,274.3 364.8,281.1 362.5,288.4C361.7,291.1 360.9,293.7 360.3,296.4C359.6,299.5 359.1,302.7 358.7,306.2C358.4,309.5 358.2,312.7 358.2,315.9C358.2,319.1 358.5,322.6 359,327.5C359.7,332.4 360.9,337.8 362.6,343.1C365.5,352.1 369.8,360.2 375.6,367.5C381.4,374.8 389.1,380.9 397.8,385.9C398.8,386.5 399.9,387 401,387.6C401.3,387.8 401.5,387.9 401.8,388C409.6,391.7 418.1,394.2 428,395.3L428,395C431.3,395.3 433.4,395.4 436.2,395.5C439.5,395.5 442.8,395.3 444.4,395L444.4,395.3C452.6,394.3 460.7,392.4 467.7,389.5C469.3,388.9 471,388.2 472.5,387.5C473.6,387 474.7,386.4 475.8,385.8C484.5,380.8 492.2,374.7 498,367.4C502.2,362.1 505.6,356.4 508.3,350.3L466,350.3C465.1,351.1 464.2,351.8 463.3,352.6C459.6,355.5 455.3,357.6 450.6,359C448.7,359.6 446.4,360 444.8,360.3C443.2,360.8 439.9,361.1 436.6,361.1C433.3,361.1 431.1,360.8 428.4,360.3C426.5,360 424.7,359.5 422.8,359C418.1,357.6 414,355.5 410.2,352.6C406.5,349.7 403.2,346.1 400.4,341.8C399.6,340.6 398.9,339.3 398.2,337.9C396.9,335.5 395.7,333.3 394.9,330.5C394.6,329.3 394.2,327.3 394,327.3L514.4,327.3L514.4,327.5ZM397.2,296.3C398,294.3 399,292.4 400.1,290.7C402.9,286.3 406.1,282.7 409.9,279.8C413.6,276.9 417.8,274.8 422.5,273.4C424.5,272.8 426.4,272.4 428.4,272C431.1,271.5 433.8,271.3 436.5,271.3C439.2,271.3 436.5,271.3 436.6,271.3L436.7,271.3C439.4,271.3 443.1,271.6 444.8,272C446.4,272.3 448.9,272.8 450.9,273.4C455.6,274.8 459.9,276.9 463.7,279.8C467.4,282.7 470.7,286.3 473.5,290.7C474.6,292.4 475.5,294.4 476.4,296.3L397.2,296.3Z" style="fill:rgb(1,2,4);fill-rule:nonzero;"/>
    </g>
    <g transform="matrix(4.16667,0,0,4.16667,-1048.36,-987.083)">
        <rect x="962.7" y="239" width="37.7" height="155.7" style="fill:rgb(1,2,4);"/>
        <path d="M1042,326.7C1039.8,323.7 1038.6,320.3 1038.6,316.6C1038.6,312.9 1039.9,309.5 1042,306.5L1056.1,290L1099.6,239L1053.8,239L1004.2,297.2L1002.4,299.3C998.5,304.3 996.2,310.3 996.2,316.6C996.2,322.9 998.5,328.9 1002.4,333.9L1004.2,336L1053.8,394.2L1099.6,394.2L1056.1,343.2L1042,326.7Z" style="fill:rgb(1,2,4);fill-rule:nonzero;"/>
    </g>
</svg>
