<?xml version="1.0" encoding="UTF-8" standalone="no"?>
<!DOCTYPE svg PUBLIC "-//W3C//DTD SVG 1.1//EN" "http://www.w3.org/Graphics/SVG/1.1/DTD/svg11.dtd">
<svg width="100%" height="100%" viewBox="0 0 1477 650" version="1.1" xmlns="http://www.w3.org/2000/svg" xmlns:xlink="http://www.w3.org/1999/xlink" xml:space="preserve" xmlns:serif="http://www.serif.com/" style="fill-rule:evenodd;clip-rule:evenodd;stroke-linejoin:round;stroke-miterlimit:2;">
    <g transform="matrix(2.55006,0,0,2.55006,-481.871,-438.424)">
        <path d="M324.382,392.161L365.363,235.159L401.082,235.159L360.099,392.161L324.382,392.161Z" style="fill:rgb(105,255,71);fill-rule:nonzero;"/>
    </g>
    <g transform="matrix(2.55006,0,0,2.55006,-481.871,-438.424)">
        <path d="M320.973,236.001L320.973,271.198L282.145,271.198C278.417,271.198 275.533,271.526 273.486,272.175C271.434,272.83 269.945,273.852 269.015,275.249C268.082,276.646 267.523,278.51 267.339,280.835C267.152,283.167 267.059,285.912 267.059,289.076L267.059,391.318L229.348,391.318L229.348,287.4C229.348,278.277 230.51,270.5 232.84,264.075C235.166,257.649 238.519,252.343 242.897,248.153C247.27,243.962 252.486,240.889 258.539,238.933C264.589,236.979 271.342,236.001 278.793,236.001L320.973,236.001Z" style="fill:rgb(4,5,6);fill-rule:nonzero;"/>
    </g>
    <g transform="matrix(2.55006,0,0,2.55006,-481.871,-438.424)">
        <path d="M514.424,323.549C512.252,320.566 510.987,317.127 510.987,313.448C510.987,309.769 512.25,306.333 514.418,303.353L528.492,286.831L571.968,235.786L526.199,235.786L476.628,293.982L474.819,296.107C474.09,297.035 473.438,298.005 472.826,298.994L472.826,235.829L435.129,235.829L435.129,391.534L472.826,391.534L472.826,327.903C473.436,328.888 474.084,329.853 474.809,330.778L476.635,332.922L526.199,391.111L571.968,391.111L528.492,340.066L514.424,323.549Z" style="fill:rgb(4,5,6);fill-rule:nonzero;"/>
    </g>
</svg>
