<?xml version="1.0" encoding="iso-8859-1"?>
<!-- Uploaded to: SVG Repo, www.svgrepo.com, Generator: SVG Repo Mixer Tools -->
<!DOCTYPE svg PUBLIC "-//W3C//DTD SVG 1.1//EN" "http://www.w3.org/Graphics/SVG/1.1/DTD/svg11.dtd">
<svg fill="#000000" height="800px" width="800px" version="1.1" id="Capa_1" xmlns="http://www.w3.org/2000/svg" xmlns:xlink="http://www.w3.org/1999/xlink" 
	 viewBox="0 0 229.5 229.5" xml:space="preserve">
<path d="M225.5,178.973H4c-2.209,0-4-1.791-4-4V87.116c0-20.175,16.414-36.589,36.589-36.589h156.321
	c20.175,0,36.589,16.414,36.589,36.589v87.857C229.5,177.182,227.709,178.973,225.5,178.973z M73.837,170.973H221.5V87.116
	c0-15.764-12.825-28.589-28.589-28.589H60.059c8.393,6.71,13.778,17.032,13.778,28.589V170.973z M8,170.973h57.837V87.116
	c0-15.764-12.825-28.589-28.589-28.589h-0.659C20.825,58.527,8,71.352,8,87.116V170.973z M194.368,144.524h-16.077
	c-2.209,0-4-1.791-4-4v-24.581H93.825c-2.209,0-4-1.791-4-4V95.867c0-2.209,1.791-4,4-4h100.543c2.209,0,4,1.791,4,4v44.657
	C198.368,142.733,196.577,144.524,194.368,144.524z M182.291,136.524h8.077V99.867H97.825v8.076h80.466c2.209,0,4,1.791,4,4V136.524
	z M56.398,99.867H16.589c-2.209,0-4-1.791-4-4s1.791-4,4-4h39.809c2.209,0,4,1.791,4,4S58.607,99.867,56.398,99.867z"/>
</svg>